<svg width="150" height="50" viewBox="0 0 150 50" fill="none" xmlns="http://www.w3.org/2000/svg">
<g id="Group 21">
<rect id="Rectangle 43" width="150" height="50" rx="12" fill="white"/>
<path id="Jared Dye" d="M20.4439 28.36C20.2039 29.5333 19.9106 30.76 19.5639 32.04C19.2172 33.2933 18.7506 34.44 18.1639 35.48C17.6039 36.4933 16.9106 37.3467 16.0839 38.04C15.2839 38.7067 14.3239 39.04 13.2039 39.04C12.4572 39.04 11.6439 38.88 10.7639 38.56C9.91057 38.24 8.96391 37.6933 7.92391 36.92L10.6839 30.76C10.8172 31.0267 11.0706 31.2667 11.4439 31.48C11.8439 31.6667 12.2706 31.76 12.7239 31.76C13.0439 31.76 13.3239 31.4933 13.5639 30.96C13.8306 30.4267 14.0572 29.8133 14.2439 29.12C14.4306 28.4 14.5772 27.6667 14.6839 26.92C14.7906 26.1733 14.8706 25.5733 14.9239 25.12C15.4306 22.5333 15.9106 19.96 16.3639 17.4C16.8172 14.8133 17.3506 12.24 17.9639 9.68C19.1639 9.57333 20.3372 9.41333 21.4839 9.2C22.6572 8.96 23.8306 8.68 25.0039 8.36C24.6039 9.72 24.1906 11.2667 23.7639 13C23.3372 14.7333 22.9239 16.5067 22.5239 18.32C22.1239 20.1333 21.7372 21.92 21.3639 23.68C21.0172 25.4133 20.7106 26.9733 20.4439 28.36ZM34.8958 38.2C34.2291 38.3067 33.4958 38.4267 32.6958 38.56C31.8958 38.6933 31.1758 38.8133 30.5358 38.92C30.6424 38.04 30.7491 37.1733 30.8558 36.32C30.9358 35.5733 31.0024 34.8267 31.0558 34.08C31.1358 33.3333 31.2024 32.6933 31.2558 32.16H27.7758L26.1758 37.92C25.5891 38 24.8958 38.0933 24.0958 38.2C23.2958 38.28 22.5491 38.36 21.8558 38.44C21.0024 38.5467 20.1624 38.6533 19.3358 38.76C20.4024 35.2133 21.4558 31.72 22.4958 28.28C22.9224 26.84 23.3624 25.3333 23.8158 23.76C24.2958 22.1867 24.7624 20.6267 25.2158 19.08C25.6958 17.5067 26.1491 16 26.5758 14.56C27.0024 13.12 27.3758 11.8 27.6958 10.6C29.5091 10.4667 31.3491 10.3067 33.2158 10.12C35.1091 9.93333 36.9491 9.68 38.7358 9.36C38.6558 10.2133 38.5624 11.28 38.4558 12.56C38.3758 13.8133 38.2958 15.1867 38.2158 16.68C38.1358 18.1733 38.0558 19.7333 37.9758 21.36C37.8958 22.9867 37.8158 24.5867 37.7358 26.16C37.6024 29.84 37.4558 33.7467 37.2958 37.88C36.4958 38.0133 35.6958 38.12 34.8958 38.2ZM28.7358 28.16C28.8424 28.16 29.0291 28.16 29.2958 28.16C29.5891 28.1333 29.8824 28.12 30.1758 28.12C30.4958 28.0933 30.7891 28.08 31.0558 28.08C31.3224 28.0533 31.5091 28.0267 31.6158 28C31.6158 27.84 31.6291 27.5733 31.6558 27.2C31.7091 26.8 31.7491 26.36 31.7758 25.88C31.8291 25.3733 31.8824 24.8267 31.9358 24.24C31.9891 23.6533 32.0424 23.08 32.0958 22.52C32.2024 21.16 32.3358 19.6933 32.4958 18.12L32.7358 14.64L32.1358 14.68L31.2158 18.12L28.7358 28.16ZM37.6405 39.04C38.3605 35.4933 39.0538 32.0267 39.7205 28.64C39.9605 27.2 40.2271 25.7067 40.5205 24.16C40.8138 22.5867 41.0805 21.04 41.3205 19.52C41.5871 17.9733 41.8271 16.4933 42.0405 15.08C42.2805 13.64 42.4671 12.3333 42.6005 11.16C44.1205 10.68 45.7605 10.3333 47.5205 10.12C49.2805 9.88 51.0271 9.76 52.7605 9.76C53.8005 9.76 54.6538 9.88 55.3205 10.12C56.0138 10.36 56.5471 10.7067 56.9205 11.16C57.3205 11.5867 57.6005 12.0933 57.7605 12.68C57.9205 13.2667 58.0005 13.92 58.0005 14.64C58.0005 15.7067 57.8138 16.76 57.4405 17.8C57.0671 18.8133 56.5605 19.7867 55.9205 20.72C55.3071 21.6267 54.5871 22.4667 53.7605 23.24C52.9605 23.9867 52.0938 24.6 51.1605 25.08C51.6405 26.1467 52.1471 27.32 52.6805 28.6C53.2405 29.8533 53.7605 31.0533 54.2405 32.2C54.7738 33.5333 55.3205 34.8667 55.8805 36.2L49.6805 38.36C49.1471 36.6533 48.6671 35.0533 48.2405 33.56C48.0538 32.9467 47.8671 32.32 47.6805 31.68C47.4938 31.0133 47.3205 30.3867 47.1605 29.8C47.0005 29.2133 46.8671 28.6933 46.7605 28.24C46.6538 27.76 46.5871 27.3733 46.5605 27.08L46.0405 27.24C45.8805 28.0933 45.6805 29.0933 45.4405 30.24C45.2271 31.3867 45.0271 32.4933 44.8405 33.56C44.6005 34.8133 44.3605 36.08 44.1205 37.36L37.6405 39.04ZM47.0405 21.68C47.5471 21.6267 48.1605 21.4133 48.8805 21.04C49.6271 20.6667 50.3338 20.2267 51.0005 19.72C51.6671 19.1867 52.2405 18.64 52.7205 18.08C53.2005 17.52 53.4405 17.0267 53.4405 16.6C53.4405 16.3067 53.3471 16.08 53.1605 15.92C52.9738 15.7333 52.7071 15.6 52.3605 15.52C52.0405 15.4133 51.6805 15.3467 51.2805 15.32C50.8805 15.2933 50.4671 15.28 50.0405 15.28C49.7471 15.28 49.4405 15.2933 49.1205 15.32C48.8271 15.32 48.5605 15.32 48.3205 15.32L47.0405 21.68ZM55.5739 39.04L60.8139 10.6L73.4539 9.52C73.2672 10.1067 73.1072 10.7067 72.9739 11.32C72.8406 11.8267 72.7072 12.36 72.5739 12.92C72.4672 13.4533 72.3739 13.9333 72.2939 14.36C72.0272 14.3867 71.6406 14.4133 71.1339 14.44C70.6539 14.44 70.1339 14.4533 69.5739 14.48C69.0139 14.48 68.4406 14.48 67.8539 14.48C67.2939 14.48 66.8006 14.48 66.3739 14.48L64.9739 21.64C65.8006 21.5867 66.5739 21.5467 67.2939 21.52C67.8806 21.4933 68.4806 21.48 69.0939 21.48C69.7072 21.48 70.1606 21.4667 70.4539 21.44C70.3472 22.1867 70.2406 22.92 70.1339 23.64C70.0539 24.36 69.9472 25.0933 69.8139 25.84C69.5472 25.8667 69.1072 25.8933 68.4939 25.92C67.9072 25.92 67.3072 25.9333 66.6939 25.96C66.0006 25.9867 65.2406 26.0133 64.4139 26.04L63.0539 33.4L68.8939 32.48L68.4939 37.04L55.5739 39.04ZM89.2467 18.56C89.2467 19.9467 89.0467 21.4267 88.6467 23C88.2467 24.5467 87.6867 26.0933 86.9667 27.64C86.2467 29.16 85.3534 30.6267 84.2867 32.04C83.2467 33.4267 82.0601 34.6533 80.7267 35.72C79.3934 36.76 77.9267 37.6 76.3267 38.24C74.7534 38.88 73.0734 39.2 71.2867 39.2C70.9134 39.2 70.5401 39.1733 70.1667 39.12C69.7934 39.0933 69.4201 39.0533 69.0467 39C69.7667 35.32 70.4734 31.7333 71.1667 28.24C71.4334 26.7733 71.7134 25.2533 72.0067 23.68C72.3001 22.08 72.5801 20.5067 72.8467 18.96C73.1134 17.4133 73.3667 15.9333 73.6067 14.52C73.8734 13.1067 74.0867 11.8267 74.2467 10.68C75.3934 10.4667 76.5534 10.2667 77.7267 10.08C78.9001 9.89333 80.1001 9.8 81.3267 9.8C82.7667 9.8 83.9801 10.0267 84.9667 10.48C85.9801 10.9333 86.7934 11.56 87.4067 12.36C88.0467 13.16 88.5134 14.0933 88.8067 15.16C89.1001 16.2267 89.2467 17.36 89.2467 18.56ZM79.8067 15.44C79.5134 17.0133 79.2067 18.52 78.8867 19.96C78.5667 21.4 78.2467 22.8533 77.9267 24.32C77.6067 25.7867 77.2867 27.32 76.9667 28.92C76.6467 30.52 76.3401 32.2667 76.0467 34.16C76.6867 33.7333 77.3001 33.16 77.8867 32.44C78.5001 31.6933 79.0734 30.84 79.6067 29.88C80.1401 28.92 80.6201 27.9067 81.0467 26.84C81.5001 25.7733 81.8867 24.7333 82.2067 23.72C82.5267 22.7067 82.7667 21.76 82.9267 20.88C83.1134 20 83.2067 19.24 83.2067 18.6C83.2067 17.6133 82.9267 16.84 82.3667 16.28C81.8334 15.72 80.9801 15.44 79.8067 15.44ZM114.715 18.56C114.715 19.9467 114.515 21.4267 114.115 23C113.715 24.5467 113.155 26.0933 112.435 27.64C111.715 29.16 110.822 30.6267 109.755 32.04C108.715 33.4267 107.529 34.6533 106.195 35.72C104.862 36.76 103.395 37.6 101.795 38.24C100.222 38.88 98.5421 39.2 96.7555 39.2C96.3821 39.2 96.0088 39.1733 95.6355 39.12C95.2621 39.0933 94.8888 39.0533 94.5155 39C95.2355 35.32 95.9421 31.7333 96.6355 28.24C96.9021 26.7733 97.1821 25.2533 97.4755 23.68C97.7688 22.08 98.0488 20.5067 98.3155 18.96C98.5821 17.4133 98.8355 15.9333 99.0755 14.52C99.3421 13.1067 99.5555 11.8267 99.7155 10.68C100.862 10.4667 102.022 10.2667 103.195 10.08C104.369 9.89333 105.569 9.8 106.795 9.8C108.235 9.8 109.449 10.0267 110.435 10.48C111.449 10.9333 112.262 11.56 112.875 12.36C113.515 13.16 113.982 14.0933 114.275 15.16C114.569 16.2267 114.715 17.36 114.715 18.56ZM105.275 15.44C104.982 17.0133 104.675 18.52 104.355 19.96C104.035 21.4 103.715 22.8533 103.395 24.32C103.075 25.7867 102.755 27.32 102.435 28.92C102.115 30.52 101.809 32.2667 101.515 34.16C102.155 33.7333 102.769 33.16 103.355 32.44C103.969 31.6933 104.542 30.84 105.075 29.88C105.609 28.92 106.089 27.9067 106.515 26.84C106.969 25.7733 107.355 24.7333 107.675 23.72C107.995 22.7067 108.235 21.76 108.395 20.88C108.582 20 108.675 19.24 108.675 18.6C108.675 17.6133 108.395 16.84 107.835 16.28C107.302 15.72 106.449 15.44 105.275 15.44ZM115.092 38.4L116.932 30.36C116.932 29.2133 116.905 27.9733 116.852 26.64C116.825 25.28 116.772 23.92 116.692 22.56C116.612 21.2 116.532 19.8933 116.452 18.64C116.372 17.36 116.305 16.24 116.252 15.28C116.198 14.2933 116.145 13.5067 116.092 12.92C116.038 12.3333 116.012 12.04 116.012 12.04L122.532 9.56V14.44C122.532 15.1067 122.532 15.7867 122.532 16.48C122.532 17.1733 122.518 17.8533 122.492 18.52C122.492 19.1867 122.492 19.8133 122.492 20.4C122.492 20.9867 122.492 21.48 122.492 21.88C122.838 20.9733 123.252 19.8533 123.732 18.52C124.238 17.1867 124.705 15.8933 125.132 14.64C125.638 13.1733 126.158 11.6267 126.692 10L132.892 11.4C131.745 13.6933 130.625 15.9733 129.532 18.24C129.078 19.2267 128.598 20.2533 128.092 21.32C127.585 22.36 127.078 23.4133 126.572 24.48C126.065 25.52 125.572 26.5333 125.092 27.52C124.612 28.5067 124.172 29.4267 123.772 30.28C123.638 30.9733 123.465 31.7333 123.252 32.56C123.065 33.3867 122.878 34.1733 122.692 34.92C122.452 35.8 122.198 36.68 121.932 37.56L115.092 38.4ZM127.683 39.04L132.923 10.6L145.563 9.52C145.377 10.1067 145.217 10.7067 145.083 11.32C144.95 11.8267 144.817 12.36 144.683 12.92C144.577 13.4533 144.483 13.9333 144.403 14.36C144.137 14.3867 143.75 14.4133 143.243 14.44C142.763 14.44 142.243 14.4533 141.683 14.48C141.123 14.48 140.55 14.48 139.963 14.48C139.403 14.48 138.91 14.48 138.483 14.48L137.083 21.64C137.91 21.5867 138.683 21.5467 139.403 21.52C139.99 21.4933 140.59 21.48 141.203 21.48C141.817 21.48 142.27 21.4667 142.563 21.44C142.457 22.1867 142.35 22.92 142.243 23.64C142.163 24.36 142.057 25.0933 141.923 25.84C141.657 25.8667 141.217 25.8933 140.603 25.92C140.017 25.92 139.417 25.9333 138.803 25.96C138.11 25.9867 137.35 26.0133 136.523 26.04L135.163 33.4L141.003 32.48L140.603 37.04L127.683 39.04Z" fill="#BF9F9F"/>
</g>
</svg>
