<svg width="140" height="50" viewBox="0 0 140 50" fill="none" xmlns="http://www.w3.org/2000/svg">
<g id="Group 21">
<rect id="Rectangle 43" width="140" height="50" rx="12" fill="white"/>
<path id="Jared Dye" d="M20.8995 28.424C20.6835 29.48 20.4195 30.584 20.1075 31.736C19.7955 32.864 19.3755 33.896 18.8475 34.832C18.3435 35.744 17.7195 36.512 16.9755 37.136C16.2555 37.736 15.3915 38.036 14.3835 38.036C13.7115 38.036 12.9795 37.892 12.1875 37.604C11.4195 37.316 10.5675 36.824 9.63152 36.128L12.1155 30.584C12.2355 30.824 12.4635 31.04 12.7995 31.232C13.1595 31.4 13.5435 31.484 13.9515 31.484C14.2395 31.484 14.4915 31.244 14.7075 30.764C14.9475 30.284 15.1515 29.732 15.3195 29.108C15.4875 28.46 15.6195 27.8 15.7155 27.128C15.8115 26.456 15.8835 25.916 15.9315 25.508C16.3875 23.18 16.8195 20.864 17.2275 18.56C17.6355 16.232 18.1155 13.916 18.6675 11.612C19.7475 11.516 20.8035 11.372 21.8355 11.18C22.8915 10.964 23.9475 10.712 25.0035 10.424C24.6435 11.648 24.2715 13.04 23.8875 14.6C23.5035 16.16 23.1315 17.756 22.7715 19.388C22.4115 21.02 22.0635 22.628 21.7275 24.212C21.4155 25.772 21.1395 27.176 20.8995 28.424ZM33.9062 37.28C33.3062 37.376 32.6462 37.484 31.9262 37.604C31.2062 37.724 30.5582 37.832 29.9822 37.928C30.0782 37.136 30.1742 36.356 30.2702 35.588C30.3422 34.916 30.4022 34.244 30.4502 33.572C30.5222 32.9 30.5822 32.324 30.6302 31.844H27.4982L26.0582 37.028C25.5302 37.1 24.9062 37.184 24.1862 37.28C23.4662 37.352 22.7942 37.424 22.1702 37.496C21.4022 37.592 20.6462 37.688 19.9022 37.784C20.8622 34.592 21.8102 31.448 22.7462 28.352C23.1302 27.056 23.5262 25.7 23.9342 24.284C24.3662 22.868 24.7862 21.464 25.1942 20.072C25.6262 18.656 26.0342 17.3 26.4182 16.004C26.8022 14.708 27.1382 13.52 27.4262 12.44C29.0582 12.32 30.7142 12.176 32.3942 12.008C34.0982 11.84 35.7542 11.612 37.3622 11.324C37.2902 12.092 37.2062 13.052 37.1102 14.204C37.0382 15.332 36.9662 16.568 36.8942 17.912C36.8222 19.256 36.7502 20.66 36.6782 22.124C36.6062 23.588 36.5342 25.028 36.4622 26.444C36.3422 29.756 36.2102 33.272 36.0662 36.992C35.3462 37.112 34.6262 37.208 33.9062 37.28ZM28.3622 28.244C28.4582 28.244 28.6262 28.244 28.8662 28.244C29.1302 28.22 29.3942 28.208 29.6582 28.208C29.9462 28.184 30.2102 28.172 30.4502 28.172C30.6902 28.148 30.8582 28.124 30.9542 28.1C30.9542 27.956 30.9662 27.716 30.9902 27.38C31.0382 27.02 31.0742 26.624 31.0982 26.192C31.1462 25.736 31.1942 25.244 31.2422 24.716C31.2902 24.188 31.3382 23.672 31.3862 23.168C31.4822 21.944 31.6022 20.624 31.7462 19.208L31.9622 16.076L31.4222 16.112L30.5942 19.208L28.3622 28.244ZM36.3764 38.036C37.0244 34.844 37.6484 31.724 38.2484 28.676C38.4644 27.38 38.7044 26.036 38.9684 24.644C39.2324 23.228 39.4724 21.836 39.6884 20.468C39.9284 19.076 40.1444 17.744 40.3364 16.472C40.5524 15.176 40.7204 14 40.8404 12.944C42.2084 12.512 43.6844 12.2 45.2684 12.008C46.8524 11.792 48.4244 11.684 49.9844 11.684C50.9204 11.684 51.6884 11.792 52.2884 12.008C52.9124 12.224 53.3924 12.536 53.7284 12.944C54.0884 13.328 54.3404 13.784 54.4844 14.312C54.6284 14.84 54.7004 15.428 54.7004 16.076C54.7004 17.036 54.5324 17.984 54.1964 18.92C53.8604 19.832 53.4044 20.708 52.8284 21.548C52.2764 22.364 51.6284 23.12 50.8844 23.816C50.1644 24.488 49.3844 25.04 48.5444 25.472C48.9764 26.432 49.4324 27.488 49.9124 28.64C50.4164 29.768 50.8844 30.848 51.3164 31.88C51.7964 33.08 52.2884 34.28 52.7924 35.48L47.2124 37.424C46.7324 35.888 46.3004 34.448 45.9164 33.104C45.7484 32.552 45.5804 31.988 45.4124 31.412C45.2444 30.812 45.0884 30.248 44.9444 29.72C44.8004 29.192 44.6804 28.724 44.5844 28.316C44.4884 27.884 44.4284 27.536 44.4044 27.272L43.9364 27.416C43.7924 28.184 43.6124 29.084 43.3964 30.116C43.2044 31.148 43.0244 32.144 42.8564 33.104C42.6404 34.232 42.4244 35.372 42.2084 36.524L36.3764 38.036ZM44.8364 22.412C45.2924 22.364 45.8444 22.172 46.4924 21.836C47.1644 21.5 47.8004 21.104 48.4004 20.648C49.0004 20.168 49.5164 19.676 49.9484 19.172C50.3804 18.668 50.5964 18.224 50.5964 17.84C50.5964 17.576 50.5124 17.372 50.3444 17.228C50.1764 17.06 49.9364 16.94 49.6244 16.868C49.3364 16.772 49.0124 16.712 48.6524 16.688C48.2924 16.664 47.9204 16.652 47.5364 16.652C47.2724 16.652 46.9964 16.664 46.7084 16.688C46.4444 16.688 46.2044 16.688 45.9884 16.688L44.8364 22.412ZM52.5165 38.036L57.2325 12.44L68.6085 11.468C68.4405 11.996 68.2965 12.536 68.1765 13.088C68.0565 13.544 67.9365 14.024 67.8165 14.528C67.7205 15.008 67.6365 15.44 67.5645 15.824C67.3245 15.848 66.9765 15.872 66.5205 15.896C66.0885 15.896 65.6205 15.908 65.1165 15.932C64.6125 15.932 64.0965 15.932 63.5685 15.932C63.0645 15.932 62.6205 15.932 62.2365 15.932L60.9765 22.376C61.7205 22.328 62.4165 22.292 63.0645 22.268C63.5925 22.244 64.1325 22.232 64.6845 22.232C65.2365 22.232 65.6445 22.22 65.9085 22.196C65.8125 22.868 65.7165 23.528 65.6205 24.176C65.5485 24.824 65.4525 25.484 65.3325 26.156C65.0925 26.18 64.6965 26.204 64.1445 26.228C63.6165 26.228 63.0765 26.24 62.5245 26.264C61.9005 26.288 61.2165 26.312 60.4725 26.336L59.2485 32.96L64.5045 32.132L64.1445 36.236L52.5165 38.036ZM82.822 19.604C82.822 20.852 82.642 22.184 82.282 23.6C81.922 24.992 81.418 26.384 80.77 27.776C80.122 29.144 79.318 30.464 78.358 31.736C77.422 32.984 76.354 34.088 75.154 35.048C73.954 35.984 72.634 36.74 71.194 37.316C69.778 37.892 68.266 38.18 66.658 38.18C66.322 38.18 65.986 38.156 65.65 38.108C65.314 38.084 64.978 38.048 64.642 38C65.29 34.688 65.926 31.46 66.55 28.316C66.79 26.996 67.042 25.628 67.306 24.212C67.57 22.772 67.822 21.356 68.062 19.964C68.302 18.572 68.53 17.24 68.746 15.968C68.986 14.696 69.178 13.544 69.322 12.512C70.354 12.32 71.398 12.14 72.454 11.972C73.51 11.804 74.59 11.72 75.694 11.72C76.99 11.72 78.082 11.924 78.97 12.332C79.882 12.74 80.614 13.304 81.166 14.024C81.742 14.744 82.162 15.584 82.426 16.544C82.69 17.504 82.822 18.524 82.822 19.604ZM74.326 16.796C74.062 18.212 73.786 19.568 73.498 20.864C73.21 22.16 72.922 23.468 72.634 24.788C72.346 26.108 72.058 27.488 71.77 28.928C71.482 30.368 71.206 31.94 70.942 33.644C71.518 33.26 72.07 32.744 72.598 32.096C73.15 31.424 73.666 30.656 74.146 29.792C74.626 28.928 75.058 28.016 75.442 27.056C75.85 26.096 76.198 25.16 76.486 24.248C76.774 23.336 76.99 22.484 77.134 21.692C77.302 20.9 77.386 20.216 77.386 19.64C77.386 18.752 77.134 18.056 76.63 17.552C76.15 17.048 75.382 16.796 74.326 16.796ZM105.744 19.604C105.744 20.852 105.564 22.184 105.204 23.6C104.844 24.992 104.34 26.384 103.692 27.776C103.044 29.144 102.24 30.464 101.28 31.736C100.344 32.984 99.2759 34.088 98.0759 35.048C96.8759 35.984 95.5559 36.74 94.1159 37.316C92.6999 37.892 91.1879 38.18 89.5799 38.18C89.2439 38.18 88.9079 38.156 88.5719 38.108C88.2359 38.084 87.8999 38.048 87.5639 38C88.2119 34.688 88.8479 31.46 89.4719 28.316C89.7119 26.996 89.9639 25.628 90.2279 24.212C90.4919 22.772 90.7439 21.356 90.9839 19.964C91.2239 18.572 91.4519 17.24 91.6679 15.968C91.9079 14.696 92.0999 13.544 92.2439 12.512C93.2759 12.32 94.3199 12.14 95.3759 11.972C96.4319 11.804 97.5119 11.72 98.6159 11.72C99.9119 11.72 101.004 11.924 101.892 12.332C102.804 12.74 103.536 13.304 104.088 14.024C104.664 14.744 105.084 15.584 105.348 16.544C105.612 17.504 105.744 18.524 105.744 19.604ZM97.2479 16.796C96.9839 18.212 96.7079 19.568 96.4199 20.864C96.1319 22.16 95.8439 23.468 95.5559 24.788C95.2679 26.108 94.9799 27.488 94.6919 28.928C94.4039 30.368 94.1279 31.94 93.8639 33.644C94.4399 33.26 94.9919 32.744 95.5199 32.096C96.0719 31.424 96.5879 30.656 97.0679 29.792C97.5479 28.928 97.9799 28.016 98.3639 27.056C98.7719 26.096 99.1199 25.16 99.4079 24.248C99.6959 23.336 99.9119 22.484 100.056 21.692C100.224 20.9 100.308 20.216 100.308 19.64C100.308 18.752 100.056 18.056 99.5519 17.552C99.0719 17.048 98.3039 16.796 97.2479 16.796ZM106.083 37.46L107.739 30.224C107.739 29.192 107.715 28.076 107.667 26.876C107.643 25.652 107.595 24.428 107.523 23.204C107.451 21.98 107.379 20.804 107.307 19.676C107.235 18.524 107.175 17.516 107.127 16.652C107.079 15.764 107.031 15.056 106.983 14.528C106.935 14 106.911 13.736 106.911 13.736L112.779 11.504V15.896C112.779 16.496 112.779 17.108 112.779 17.732C112.779 18.356 112.767 18.968 112.743 19.568C112.743 20.168 112.743 20.732 112.743 21.26C112.743 21.788 112.743 22.232 112.743 22.592C113.055 21.776 113.427 20.768 113.859 19.568C114.315 18.368 114.735 17.204 115.119 16.076C115.575 14.756 116.043 13.364 116.523 11.9L122.103 13.16C121.071 15.224 120.063 17.276 119.079 19.316C118.671 20.204 118.239 21.128 117.783 22.088C117.327 23.024 116.871 23.972 116.415 24.932C115.959 25.868 115.515 26.78 115.083 27.668C114.651 28.556 114.255 29.384 113.895 30.152C113.775 30.776 113.619 31.46 113.427 32.204C113.259 32.948 113.091 33.656 112.923 34.328C112.707 35.12 112.479 35.912 112.239 36.704L106.083 37.46ZM117.415 38.036L122.131 12.44L133.507 11.468C133.339 11.996 133.195 12.536 133.075 13.088C132.955 13.544 132.835 14.024 132.715 14.528C132.619 15.008 132.535 15.44 132.463 15.824C132.223 15.848 131.875 15.872 131.419 15.896C130.987 15.896 130.519 15.908 130.015 15.932C129.511 15.932 128.995 15.932 128.467 15.932C127.963 15.932 127.519 15.932 127.135 15.932L125.875 22.376C126.619 22.328 127.315 22.292 127.963 22.268C128.491 22.244 129.031 22.232 129.583 22.232C130.135 22.232 130.543 22.22 130.807 22.196C130.711 22.868 130.615 23.528 130.519 24.176C130.447 24.824 130.351 25.484 130.231 26.156C129.991 26.18 129.595 26.204 129.043 26.228C128.515 26.228 127.975 26.24 127.423 26.264C126.799 26.288 126.115 26.312 125.371 26.336L124.147 32.96L129.403 32.132L129.043 36.236L117.415 38.036Z" fill="#BF9F9F"/>
</g>
</svg>
