<svg width="70" height="70" viewBox="0 0 70 70" fill="none" xmlns="http://www.w3.org/2000/svg">
<rect y="0.00012207" width="70" height="70" rx="12" fill="white"/>
<path d="M31.4311 39.232C31.1431 40.64 30.7911 42.112 30.3751 43.648C29.9591 45.152 29.3991 46.528 28.6951 47.776C28.0231 48.992 27.1911 50.016 26.1991 50.848C25.2391 51.648 24.0871 52.048 22.7431 52.048C21.8471 52.048 20.8711 51.856 19.8151 51.472C18.7911 51.088 17.6551 50.432 16.4071 49.504L19.7191 42.112C19.8791 42.432 20.1831 42.72 20.6311 42.976C21.1111 43.2 21.6231 43.312 22.1671 43.312C22.5511 43.312 22.8871 42.992 23.1751 42.352C23.4951 41.712 23.7671 40.976 23.9911 40.144C24.2151 39.28 24.3911 38.4 24.5191 37.504C24.6471 36.608 24.7431 35.888 24.8071 35.344C25.4151 32.24 25.9911 29.152 26.5351 26.08C27.0791 22.976 27.7191 19.888 28.4551 16.816C29.8951 16.688 31.3031 16.496 32.6791 16.24C34.0871 15.952 35.4951 15.616 36.9031 15.232C36.4231 16.864 35.9271 18.72 35.4151 20.8C34.9031 22.88 34.4071 25.008 33.9271 27.184C33.4471 29.36 32.9831 31.504 32.5351 33.616C32.1191 35.696 31.7511 37.568 31.4311 39.232ZM55.5414 27.472C55.5414 29.136 55.3014 30.912 54.8214 32.8C54.3414 34.656 53.6694 36.512 52.8054 38.368C51.9414 40.192 50.8694 41.952 49.5894 43.648C48.3414 45.312 46.9174 46.784 45.3174 48.064C43.7174 49.312 41.9574 50.32 40.0374 51.088C38.1494 51.856 36.1334 52.24 33.9894 52.24C33.5414 52.24 33.0934 52.208 32.6454 52.144C32.1974 52.112 31.7494 52.064 31.3014 52C32.1654 47.584 33.0134 43.28 33.8454 39.088C34.1654 37.328 34.5014 35.504 34.8534 33.616C35.2054 31.696 35.5414 29.808 35.8614 27.952C36.1814 26.096 36.4854 24.32 36.7734 22.624C37.0934 20.928 37.3494 19.392 37.5414 18.016C38.9174 17.76 40.3094 17.52 41.7174 17.296C43.1254 17.072 44.5654 16.96 46.0374 16.96C47.7654 16.96 49.2214 17.232 50.4054 17.776C51.6214 18.32 52.5974 19.072 53.3334 20.032C54.1014 20.992 54.6614 22.112 55.0134 23.392C55.3654 24.672 55.5414 26.032 55.5414 27.472ZM44.2134 23.728C43.8614 25.616 43.4934 27.424 43.1094 29.152C42.7254 30.88 42.3414 32.624 41.9574 34.384C41.5734 36.144 41.1894 37.984 40.8054 39.904C40.4214 41.824 40.0534 43.92 39.7014 46.192C40.4694 45.68 41.2054 44.992 41.9094 44.128C42.6454 43.232 43.3334 42.208 43.9734 41.056C44.6134 39.904 45.1894 38.688 45.7014 37.408C46.2454 36.128 46.7094 34.88 47.0934 33.664C47.4774 32.448 47.7654 31.312 47.9574 30.256C48.1814 29.2 48.2934 28.288 48.2934 27.52C48.2934 26.336 47.9574 25.408 47.2854 24.736C46.6454 24.064 45.6214 23.728 44.2134 23.728Z" fill="#BF9F9F"/>
</svg>
