<svg width="219" height="70" viewBox="0 0 219 70" fill="none" xmlns="http://www.w3.org/2000/svg">
<g id="Group 21">
<rect id="Rectangle 43" width="219" height="70" rx="12" fill="white"/>
<path id="Jared Dye" d="M44.0327 39.232C43.7447 40.64 43.3927 42.112 42.9767 43.648C42.5607 45.152 42.0007 46.528 41.2967 47.776C40.6247 48.992 39.7927 50.016 38.8007 50.848C37.8407 51.648 36.6887 52.048 35.3447 52.048C34.4487 52.048 33.4727 51.856 32.4167 51.472C31.3927 51.088 30.2567 50.432 29.0087 49.504L32.3207 42.112C32.4807 42.432 32.7847 42.72 33.2327 42.976C33.7127 43.2 34.2247 43.312 34.7687 43.312C35.1527 43.312 35.4887 42.992 35.7767 42.352C36.0967 41.712 36.3687 40.976 36.5927 40.144C36.8167 39.28 36.9927 38.4 37.1207 37.504C37.2487 36.608 37.3447 35.888 37.4087 35.344C38.0167 32.24 38.5927 29.152 39.1367 26.08C39.6807 22.976 40.3207 19.888 41.0567 16.816C42.4967 16.688 43.9047 16.496 45.2807 16.24C46.6887 15.952 48.0967 15.616 49.5047 15.232C49.0247 16.864 48.5287 18.72 48.0167 20.8C47.5047 22.88 47.0087 25.008 46.5287 27.184C46.0487 29.36 45.5847 31.504 45.1367 33.616C44.7207 35.696 44.3527 37.568 44.0327 39.232ZM61.3749 51.04C60.5749 51.168 59.6949 51.312 58.7349 51.472C57.7749 51.632 56.9109 51.776 56.1429 51.904C56.2709 50.848 56.3989 49.808 56.5269 48.784C56.6229 47.888 56.7029 46.992 56.7669 46.096C56.8629 45.2 56.9429 44.432 57.0069 43.792H52.8309L50.9109 50.704C50.2069 50.8 49.3749 50.912 48.4149 51.04C47.4549 51.136 46.5589 51.232 45.7269 51.328C44.7029 51.456 43.6949 51.584 42.7029 51.712C43.9829 47.456 45.2469 43.264 46.4949 39.136C47.0069 37.408 47.5349 35.6 48.0789 33.712C48.6549 31.824 49.2149 29.952 49.7589 28.096C50.3349 26.208 50.8789 24.4 51.3909 22.672C51.9029 20.944 52.3509 19.36 52.7349 17.92C54.9109 17.76 57.1189 17.568 59.3589 17.344C61.6309 17.12 63.8389 16.816 65.9829 16.432C65.8869 17.456 65.7749 18.736 65.6469 20.272C65.5509 21.776 65.4549 23.424 65.3589 25.216C65.2629 27.008 65.1669 28.88 65.0709 30.832C64.9749 32.784 64.8789 34.704 64.7829 36.592C64.6229 41.008 64.4469 45.696 64.2549 50.656C63.2949 50.816 62.3349 50.944 61.3749 51.04ZM53.9829 38.992C54.1109 38.992 54.3349 38.992 54.6549 38.992C55.0069 38.96 55.3589 38.944 55.7109 38.944C56.0949 38.912 56.4469 38.896 56.7669 38.896C57.0869 38.864 57.3109 38.832 57.4389 38.8C57.4389 38.608 57.4549 38.288 57.4869 37.84C57.5509 37.36 57.5989 36.832 57.6309 36.256C57.6949 35.648 57.7589 34.992 57.8229 34.288C57.8869 33.584 57.9509 32.896 58.0149 32.224C58.1429 30.592 58.3029 28.832 58.4949 26.944L58.7829 22.768L58.0629 22.816L56.9589 26.944L53.9829 38.992ZM64.6686 52.048C65.5326 47.792 66.3646 43.632 67.1646 39.568C67.4526 37.84 67.7726 36.048 68.1246 34.192C68.4766 32.304 68.7966 30.448 69.0846 28.624C69.4046 26.768 69.6926 24.992 69.9486 23.296C70.2366 21.568 70.4606 20 70.6206 18.592C72.4446 18.016 74.4126 17.6 76.5246 17.344C78.6366 17.056 80.7326 16.912 82.8126 16.912C84.0606 16.912 85.0846 17.056 85.8846 17.344C86.7166 17.632 87.3566 18.048 87.8046 18.592C88.2846 19.104 88.6206 19.712 88.8126 20.416C89.0046 21.12 89.1006 21.904 89.1006 22.768C89.1006 24.048 88.8766 25.312 88.4286 26.56C87.9806 27.776 87.3726 28.944 86.6046 30.064C85.8686 31.152 85.0046 32.16 84.0126 33.088C83.0526 33.984 82.0126 34.72 80.8926 35.296C81.4686 36.576 82.0766 37.984 82.7166 39.52C83.3886 41.024 84.0126 42.464 84.5886 43.84C85.2286 45.44 85.8846 47.04 86.5566 48.64L79.1166 51.232C78.4766 49.184 77.9006 47.264 77.3886 45.472C77.1646 44.736 76.9406 43.984 76.7166 43.216C76.4926 42.416 76.2846 41.664 76.0926 40.96C75.9006 40.256 75.7406 39.632 75.6126 39.088C75.4846 38.512 75.4046 38.048 75.3726 37.696L74.7486 37.888C74.5566 38.912 74.3166 40.112 74.0286 41.488C73.7726 42.864 73.5326 44.192 73.3086 45.472C73.0206 46.976 72.7326 48.496 72.4446 50.032L64.6686 52.048ZM75.9486 31.216C76.5566 31.152 77.2926 30.896 78.1566 30.448C79.0526 30 79.9006 29.472 80.7006 28.864C81.5006 28.224 82.1886 27.568 82.7646 26.896C83.3406 26.224 83.6286 25.632 83.6286 25.12C83.6286 24.768 83.5166 24.496 83.2926 24.304C83.0686 24.08 82.7486 23.92 82.3326 23.824C81.9486 23.696 81.5166 23.616 81.0366 23.584C80.5566 23.552 80.0606 23.536 79.5486 23.536C79.1966 23.536 78.8286 23.552 78.4446 23.584C78.0926 23.584 77.7726 23.584 77.4846 23.584L75.9486 31.216ZM86.1887 52.048L92.4767 17.92L107.645 16.624C107.421 17.328 107.229 18.048 107.069 18.784C106.909 19.392 106.749 20.032 106.589 20.704C106.461 21.344 106.349 21.92 106.253 22.432C105.933 22.464 105.469 22.496 104.861 22.528C104.285 22.528 103.661 22.544 102.989 22.576C102.317 22.576 101.629 22.576 100.925 22.576C100.253 22.576 99.6607 22.576 99.1487 22.576L97.4687 31.168C98.4607 31.104 99.3887 31.056 100.253 31.024C100.957 30.992 101.677 30.976 102.413 30.976C103.149 30.976 103.693 30.96 104.045 30.928C103.917 31.824 103.789 32.704 103.661 33.568C103.565 34.432 103.437 35.312 103.277 36.208C102.957 36.24 102.429 36.272 101.693 36.304C100.989 36.304 100.269 36.32 99.5327 36.352C98.7007 36.384 97.7887 36.416 96.7967 36.448L95.1647 45.28L102.173 44.176L101.693 49.648L86.1887 52.048ZM126.596 27.472C126.596 29.136 126.356 30.912 125.876 32.8C125.396 34.656 124.724 36.512 123.86 38.368C122.996 40.192 121.924 41.952 120.644 43.648C119.396 45.312 117.972 46.784 116.372 48.064C114.772 49.312 113.012 50.32 111.092 51.088C109.204 51.856 107.188 52.24 105.044 52.24C104.596 52.24 104.148 52.208 103.7 52.144C103.252 52.112 102.804 52.064 102.356 52C103.22 47.584 104.068 43.28 104.9 39.088C105.22 37.328 105.556 35.504 105.908 33.616C106.26 31.696 106.596 29.808 106.916 27.952C107.236 26.096 107.54 24.32 107.828 22.624C108.148 20.928 108.404 19.392 108.596 18.016C109.972 17.76 111.364 17.52 112.772 17.296C114.18 17.072 115.62 16.96 117.092 16.96C118.82 16.96 120.276 17.232 121.46 17.776C122.676 18.32 123.652 19.072 124.388 20.032C125.156 20.992 125.716 22.112 126.068 23.392C126.42 24.672 126.596 26.032 126.596 27.472ZM115.268 23.728C114.916 25.616 114.548 27.424 114.164 29.152C113.78 30.88 113.396 32.624 113.012 34.384C112.628 36.144 112.244 37.984 111.86 39.904C111.476 41.824 111.108 43.92 110.756 46.192C111.524 45.68 112.26 44.992 112.964 44.128C113.7 43.232 114.388 42.208 115.028 41.056C115.668 39.904 116.244 38.688 116.756 37.408C117.3 36.128 117.764 34.88 118.148 33.664C118.532 32.448 118.82 31.312 119.012 30.256C119.236 29.2 119.348 28.288 119.348 27.52C119.348 26.336 119.012 25.408 118.34 24.736C117.7 24.064 116.676 23.728 115.268 23.728ZM157.159 27.472C157.159 29.136 156.919 30.912 156.439 32.8C155.959 34.656 155.287 36.512 154.423 38.368C153.559 40.192 152.487 41.952 151.207 43.648C149.959 45.312 148.535 46.784 146.935 48.064C145.335 49.312 143.575 50.32 141.655 51.088C139.767 51.856 137.751 52.24 135.607 52.24C135.159 52.24 134.711 52.208 134.263 52.144C133.815 52.112 133.367 52.064 132.919 52C133.783 47.584 134.631 43.28 135.463 39.088C135.783 37.328 136.119 35.504 136.471 33.616C136.823 31.696 137.159 29.808 137.479 27.952C137.799 26.096 138.103 24.32 138.391 22.624C138.711 20.928 138.967 19.392 139.159 18.016C140.535 17.76 141.927 17.52 143.335 17.296C144.743 17.072 146.183 16.96 147.655 16.96C149.383 16.96 150.839 17.232 152.023 17.776C153.239 18.32 154.215 19.072 154.951 20.032C155.719 20.992 156.279 22.112 156.631 23.392C156.983 24.672 157.159 26.032 157.159 27.472ZM145.831 23.728C145.479 25.616 145.111 27.424 144.727 29.152C144.343 30.88 143.959 32.624 143.575 34.384C143.191 36.144 142.807 37.984 142.423 39.904C142.039 41.824 141.671 43.92 141.319 46.192C142.087 45.68 142.823 44.992 143.527 44.128C144.263 43.232 144.951 42.208 145.591 41.056C146.231 39.904 146.807 38.688 147.319 37.408C147.863 36.128 148.327 34.88 148.711 33.664C149.095 32.448 149.383 31.312 149.575 30.256C149.799 29.2 149.911 28.288 149.911 27.52C149.911 26.336 149.575 25.408 148.903 24.736C148.263 24.064 147.239 23.728 145.831 23.728ZM157.61 51.28L159.818 41.632C159.818 40.256 159.786 38.768 159.722 37.168C159.69 35.536 159.626 33.904 159.53 32.272C159.434 30.64 159.338 29.072 159.242 27.568C159.146 26.032 159.066 24.688 159.002 23.536C158.938 22.352 158.874 21.408 158.81 20.704C158.746 20 158.714 19.648 158.714 19.648L166.538 16.672V22.528C166.538 23.328 166.538 24.144 166.538 24.976C166.538 25.808 166.522 26.624 166.49 27.424C166.49 28.224 166.49 28.976 166.49 29.68C166.49 30.384 166.49 30.976 166.49 31.456C166.906 30.368 167.402 29.024 167.978 27.424C168.586 25.824 169.146 24.272 169.658 22.768C170.266 21.008 170.89 19.152 171.53 17.2L178.97 18.88C177.594 21.632 176.25 24.368 174.938 27.088C174.394 28.272 173.818 29.504 173.21 30.784C172.602 32.032 171.994 33.296 171.386 34.576C170.778 35.824 170.186 37.04 169.61 38.224C169.034 39.408 168.506 40.512 168.026 41.536C167.866 42.368 167.658 43.28 167.402 44.272C167.178 45.264 166.954 46.208 166.73 47.104C166.442 48.16 166.138 49.216 165.818 50.272L157.61 51.28ZM172.72 52.048L179.008 17.92L194.176 16.624C193.952 17.328 193.76 18.048 193.6 18.784C193.44 19.392 193.28 20.032 193.12 20.704C192.992 21.344 192.88 21.92 192.784 22.432C192.464 22.464 192 22.496 191.392 22.528C190.816 22.528 190.192 22.544 189.52 22.576C188.848 22.576 188.16 22.576 187.456 22.576C186.784 22.576 186.192 22.576 185.68 22.576L184 31.168C184.992 31.104 185.92 31.056 186.784 31.024C187.488 30.992 188.208 30.976 188.944 30.976C189.68 30.976 190.224 30.96 190.576 30.928C190.448 31.824 190.32 32.704 190.192 33.568C190.096 34.432 189.968 35.312 189.808 36.208C189.488 36.24 188.96 36.272 188.224 36.304C187.52 36.304 186.8 36.32 186.064 36.352C185.232 36.384 184.32 36.416 183.328 36.448L181.696 45.28L188.704 44.176L188.224 49.648L172.72 52.048Z" fill="#BF9F9F"/>
</g>
</svg>
